<svg xmlns="http://www.w3.org/2000/svg" viewBox="0 0 477.7 406.4"><title>enter_your_dream</title><path d="M111,498.6c-38.1-98.2,10.5-208.7,108.7-246.8a189.8,189.8,0,0,1,111.2-8.2A202.7,202.7,0,0,0,159.1,232C54.5,272.6,2.7,390.3,43.3,494.9c36.8,94.7,136.8,146.2,233,124.9A190.7,190.7,0,0,1,111,498.6Z" transform="translate(-29.5 -218.1)" style="fill:#ffcc4d"/><path d="M171.6,370.5H155v24.9h18.9V402H147.4V335.7h25.3v6.6H155v21.8h16.6v6.4Z" transform="translate(-29.5 -218.1)" style="fill:#eaeaea"/><path d="M182.2,402V335.7h7.2l12.2,31.1c2.8,7.1,6.2,15.9,8.5,23.1h0.2c-0.6-10.4-.9-19-0.9-30.5V335.7h6.8V402h-7.2l-12.6-31.9a237.6,237.6,0,0,1-7.9-22.5h-0.2c0.6,8.9.8,17.3,0.8,31.5V402h-6.9Z" transform="translate(-29.5 -218.1)" style="fill:#eaeaea"/><path d="M235.7,342.5H223.6v-6.8h31.8v6.8H243.3V402h-7.6V342.5Z" transform="translate(-29.5 -218.1)" style="fill:#eaeaea"/><path d="M286.9,370.5H270.3v24.9h18.9V402H262.7V335.7H288v6.6H270.3v21.8h16.6v6.4Z" transform="translate(-29.5 -218.1)" style="fill:#eaeaea"/><path d="M297.6,336.7a43.2,43.2,0,0,1,10.9-1.3c6.6,0,11.5,1.4,14.9,4.7s4.6,7.8,4.6,13c0,8.5-3.9,14-10.6,17v0.2c4.9,1.5,7.5,6.2,8.9,14.9s2.9,14.8,3.7,16.8h-7.7c-1-2-2.3-8.3-3.5-16.4s-4.3-12.5-10.8-12.5h-3V402h-7.6V336.7Zm7.6,30.6h3.1c7.3,0,12.1-5.3,12.1-13.3s-3.1-12.4-11.3-12.5a15.2,15.2,0,0,0-3.9.4v25.4Z" transform="translate(-29.5 -218.1)" style="fill:#eaeaea"/><path d="M359.4,402V374l-14.6-38.3h8l5.9,16.6c1.7,4.6,3.4,9.8,4.9,14.9h0.2c1.4-5.1,3-10.1,4.8-15.2l5.6-16.3h8l-15.2,38V402h-7.6Z" transform="translate(-29.5 -218.1)" style="fill:#eaeaea"/><path d="M420.6,368.4c0,24.9-8.6,34.4-19.2,34.4s-18.4-11.7-18.4-34,7.9-33.8,19.5-33.8S420.6,347.2,420.6,368.4Zm-29.7.5c0,13.7,2.7,27.2,11,27.2s10.8-14.5,10.8-27.4-2.3-27-10.9-27S390.9,355.4,390.9,368.9Z" transform="translate(-29.5 -218.1)" style="fill:#eaeaea"/><path d="M437.1,335.7v44.5c0,11.9,3.9,15.9,9,15.9s9.1-4.3,9.1-15.9V335.7h7.6V379c0,17.2-7.1,23.8-16.9,23.8s-16.4-6.5-16.4-22.9V335.7h7.6Z" transform="translate(-29.5 -218.1)" style="fill:#eaeaea"/><path d="M474.6,336.7a43.2,43.2,0,0,1,10.9-1.3c6.6,0,11.5,1.4,14.9,4.7s4.6,7.8,4.6,13c0,8.5-3.9,14-10.6,17v0.2c4.9,1.5,7.5,6.2,8.9,14.9s2.9,14.8,3.7,16.8h-7.7c-1-2-2.3-8.3-3.5-16.4s-4.3-12.5-10.8-12.5h-3V402h-7.6V336.7Zm7.6,30.6h3.1c7.3,0,12.1-5.3,12.1-13.3s-3.1-12.4-11.3-12.5a15.2,15.2,0,0,0-3.9.4v25.4Z" transform="translate(-29.5 -218.1)" style="fill:#eaeaea"/><path d="M148.5,417.7a52.1,52.1,0,0,1,14.8-1.9c10.1,0,17.3,2.6,22.6,7.3,7.4,6.4,13,18.8,13,39,0,22-5.4,34-11.6,40.5S171.9,513,160.8,513a62.7,62.7,0,0,1-12.3-1V417.7Zm11,85.8a23.2,23.2,0,0,0,4.1.3c12.1,0,23.8-8.7,23.8-41.4,0-24.3-7.4-37.5-22.8-37.5a19.6,19.6,0,0,0-5.1.6v78.1Z" transform="translate(-29.5 -218.1)" style="fill:#fff"/><path d="M212,417.7a62.6,62.6,0,0,1,15.8-1.9c9.6,0,16.7,2,21.7,6.9s6.7,11.3,6.7,18.8c0,12.3-5.7,20.3-15.4,24.7v0.3c7.1,2.1,10.8,9,13,21.6s4.1,21.4,5.4,24.4H248.1c-1.4-2.9-3.3-12-5.1-23.8s-6.3-18.1-15.7-18.1H223v42H212V417.7Zm11,44.4h4.6c10.6,0,17.6-7.7,17.6-19.3s-4.6-18-16.4-18.1a22,22,0,0,0-5.7.6v36.8Z" transform="translate(-29.5 -218.1)" style="fill:#fff"/><path d="M305.5,466.8H281.4v36.1h27.4v9.6H270.4V416.3h36.7v9.6H281.4v31.7h24.1v9.3Z" transform="translate(-29.5 -218.1)" style="fill:#fff"/><path d="M332.5,483.6L326,512.5H315.5l22-96.2h12.1L371,512.5H360.2l-6.4-28.8H332.5Zm19.8-8.8-5-24.4c-1.4-6.9-2.7-14.8-3.9-22h-0.6c-1.1,7.3-2.6,15.6-3.9,22l-5,24.4h18.3Z" transform="translate(-29.5 -218.1)" style="fill:#fff"/><path d="M440.2,471.1c-0.7-12.7-1.4-26.8-1-37.7h-0.6c-2.1,10.7-4.7,22.1-7.7,33.4l-11.8,45.1h-7l-11.3-43.2c-3.1-12.3-6-24.1-7.8-35.3h-0.4c0,11.3-.6,24.7-1.1,38.4l-1.9,40.7h-9.8l5.7-96.2h11.8l11.3,44c3.3,12.7,5.7,22.1,7.7,33.1h0.4c1.9-11,4-20.1,7.1-33.1l10.8-44h12.3l5.6,96.2H442.2Z" transform="translate(-29.5 -218.1)" style="fill:#fff"/><path d="M465.4,499.8a28.1,28.1,0,0,0,13.8,3.9c10,0,16-6.6,16-16.3s-5.1-14.3-12.7-20-18.1-14.3-18.1-26.7c0-14.6,10.1-25.3,25.4-25.3,6,0,11.3,1.9,13.6,3.6l-2.7,9.4a20.1,20.1,0,0,0-11.4-3.3c-9.4,0-13.8,7.1-13.8,13.7,0,9.6,5,13.3,14.1,19.8,11.6,8.1,16.7,17,16.7,27.7,0,16.6-11.7,27-27,27-6.6,0-13.6-2.1-16.3-4.1Z" transform="translate(-29.5 -218.1)" style="fill:#fff"/></svg>