<svg xmlns="http://www.w3.org/2000/svg" viewBox="0 0 392.7 104"><title>aol</title><rect width="392.7" height="104" rx="5" ry="5" style="fill:#fff"/><path d="M293.1,428.2a7.9,7.9,0,1,0,8,7.9A8,8,0,0,0,293.1,428.2ZM185.4,390.9l-20.8,52.9h14.1l2.8-7.6h18.4l2.6,7.6h14.3l-20.6-52.9H185.4Zm-0.2,34.5,5.5-18.4,5.5,18.4h-11Zm81.6,18.4h12V390.9h-12v52.9Zm-27.9-41c-14.4,0-21.3,11.4-21.3,21.1s6.9,21.1,21.3,21.1,21.3-11.4,21.3-21.1-7-21.2-21.3-21.2h0Zm0,31.1a9.6,9.6,0,0,1-9.5-9.7v-0.3c0-5.8,4.3-10,9.5-10a10,10,0,0,1,0,19.9h0Z" transform="translate(-101 -370)" style="fill:#4880ba"/><path d="M326.9,420c0-2.8-.1-5-0.2-7.3H331l0.2,4.3h0.1a9.2,9.2,0,0,1,8.4-4.9,7.9,7.9,0,0,1,7.6,5.4h0.1a11,11,0,0,1,3-3.5,9.1,9.1,0,0,1,5.9-1.9c3.5,0,8.8,2.3,8.8,11.6v15.8h-4.8V424.3c0-5.1-1.9-8.2-5.8-8.2a6.3,6.3,0,0,0-5.8,4.4,8,8,0,0,0-.4,2.4v16.6h-4.8V423.4c0-4.3-1.9-7.4-5.6-7.4s-5.3,2.4-6,4.9a6.7,6.7,0,0,0-.4,2.4v16.2h-4.8V420h0.2Z" transform="translate(-101 -370)"/><path d="M387.9,439.5l-0.4-3.4h-0.2a10,10,0,0,1-8.2,4c-5.4,0-8.2-3.8-8.2-7.7,0-6.5,5.8-10,16.1-10v-0.6c0-2.2-.6-6.2-6.1-6.2a13.3,13.3,0,0,0-7,2l-1.1-3.2a16.6,16.6,0,0,1,8.8-2.4c8.2,0,10.2,5.6,10.2,11v10a37.7,37.7,0,0,0,.4,6.4h-4.3Zm-0.7-13.7c-5.3-.1-11.3.8-11.3,6a4.3,4.3,0,0,0,4,4.6h0.6a6.7,6.7,0,0,0,6.5-4.5,5.1,5.1,0,0,0,.3-1.5v-4.6h-0.1Z" transform="translate(-101 -370)"/><path d="M405.2,405.2a3,3,0,1,1-3-3,2.9,2.9,0,0,1,3,2.8Q405.2,405.1,405.2,405.2Zm-5.4,34.3V412.7h4.9v26.8h-4.9Z" transform="translate(-101 -370)"/><path d="M412.7,400.2h4.9v39.3h-4.9V400.2Z" transform="translate(-101 -370)"/></svg>