<svg xmlns="http://www.w3.org/2000/svg" viewBox="0 0 392.7 104"><title>gmail</title><rect width="392.7" height="104" rx="5" ry="5" style="fill:#fff"/><path d="M-365.3,504.1h-88.5a6.3,6.3,0,0,1-6.3-6.3V436.6a6.4,6.4,0,0,1,6.3-6.3h88.5a6.4,6.4,0,0,1,6.3,6.3v61.1a6.4,6.4,0,0,1-6.3,6.3h0Z" transform="translate(494.4 -415)" style="fill:#f2f2f2"/><path d="M-447.5,504.1l37.9-27.7,0.2-1.6-39-28v56Z" transform="translate(494.4 -415)" style="fill:#221f1f;opacity:0.10000000149011612;isolation:isolate"/><path d="M-453.8,504.1a6.2,6.2,0,0,1-6.3-6.1q0-.1,0-0.2V436.5c0-3.5,2.8-4.2,6.3-4.2s6.3,0.7,6.3,4.2v67.6h-6.3Z" transform="translate(494.4 -415)" style="fill:#d44c3d"/><path d="M-453.8,433.3c4.5,0,5.4,1.4,5.4,3.2v66.7h-5.4a5.4,5.4,0,0,1-5.4-5.4h0V436.5c-0.1-1.9.9-3.2,5.4-3.2h0Zm0-.9c-3.5,0-6.3.7-6.3,4.1v61.2a6.3,6.3,0,0,0,6.3,6.3h6.3V436.5c-0.1-3.5-2.8-4.1-6.3-4.1h0Z" transform="translate(494.4 -415)" style="fill:#d44c3d"/><path d="M-365.3,433.3c4.1,0,5.4.8,5.4,3.1v61.5a5.4,5.4,0,0,1-5.4,5.4h-5.4V436.4c-0.1-2.3,1.3-3.1,5.4-3.1h0Zm0-.9c-3.5,0-6.3.5-6.3,3.9v67.8h6.3a6.3,6.3,0,0,0,6.3-6.3V436.3c-0.1-3.5-2.9-3.9-6.3-3.9h0Z" transform="translate(494.4 -415)" style="fill:#d44c3d"/><path d="M-365.3,504.1h-6.3V436.4c0-3.5,2.8-3.9,6.3-3.9s6.3,0.5,6.3,3.9v61.5a6.3,6.3,0,0,1-6.3,6.2h0Z" transform="translate(494.4 -415)" style="fill:#d44c3d"/><path d="M-392.4,504.1l-67.2-64.9,3.5,1.4,46.8,33.7,50.3-36.9v60.5a6.3,6.3,0,0,1-6.3,6.3h-27.1Z" transform="translate(494.4 -415)" style="fill:#221f1f;opacity:0.07999999821186066;isolation:isolate"/><path d="M-409.7,476.5l-47.7-34.6a6.4,6.4,0,0,1-1.5-8.9,6.5,6.5,0,0,1,9-1.4l40.3,29.3,40.6-29.7a6.3,6.3,0,0,1,8.8,1.4h0a6.3,6.3,0,0,1-1.4,8.8h0l-48.1,35h0Z" transform="translate(494.4 -415)" style="fill:#d44c3d"/><path d="M-365.3,430.9h0a5.5,5.5,0,0,1,4.4,2.3,5.5,5.5,0,0,1-1.2,7.6l-47.6,34.6-47.2-34.2a5.5,5.5,0,0,1-1.4-7.6,5.4,5.4,0,0,1,4.5-2.3,5,5,0,0,1,3.2,1l40.3,29.3,0.6,0.3,0.6-.3,40.5-29.7a6.7,6.7,0,0,1,3.3-.9h0Zm0-1a5.7,5.7,0,0,0-3.7,1.2l-40.6,29.7L-450,431.4a6.2,6.2,0,0,0-3.8-1.2,6.7,6.7,0,0,0-5.2,2.7,6.4,6.4,0,0,0,1.6,8.8l47.7,34.7,48.1-35a6.4,6.4,0,0,0,1.4-8.8,6.6,6.6,0,0,0-5.1-2.7h0Z" transform="translate(494.4 -415)" style="fill:#d44c3d"/><path d="M-269.9,469.2q0,11.4-6.8,18.1t-20,8a27.3,27.3,0,0,1-20-8.2,27.4,27.4,0,0,1-8.2-20.2,27.4,27.4,0,0,1,8.2-20.2,27.3,27.3,0,0,1,20-8.2,30.2,30.2,0,0,1,11.3,2.1,22.6,22.6,0,0,1,8.7,6l-5,5a16.9,16.9,0,0,0-6.5-4.7,21.5,21.5,0,0,0-8.5-1.7,20.4,20.4,0,0,0-15,6.1,21.4,21.4,0,0,0-6.1,15.6,21.4,21.4,0,0,0,6.1,15.6,20.4,20.4,0,0,0,15,6.1,20.2,20.2,0,0,0,13.5-4.6,18.1,18.1,0,0,0,6.2-12.5h-19.7V465h26.3A23.3,23.3,0,0,1-269.9,469.2Z" transform="translate(494.4 -415)" style="fill:#787879"/><path d="M-255.6,494.2h-7V457h6.7v5.2h0.3a12.4,12.4,0,0,1,4.9-4.6,13.5,13.5,0,0,1,6.6-1.8,13.6,13.6,0,0,1,7.2,1.9,11.2,11.2,0,0,1,4.6,5.2,14.5,14.5,0,0,1,12.8-7.1q6.5,0,9.9,3.9t3.5,11.3v23.2h-7V472q0-5.2-1.9-7.6t-6.4-2.3a8.3,8.3,0,0,0-6.8,3.4,12.5,12.5,0,0,0-2.7,8v20.6h-7V472q0-5.2-1.9-7.6t-6.4-2.3a8.3,8.3,0,0,0-6.8,3.4,12.5,12.5,0,0,0-2.7,8v20.6h0.1Z" transform="translate(494.4 -415)" style="fill:#787879"/><path d="M-184.2,455.8q7.7,0,12.2,4.1t4.5,11.3v22.9h-6.6V489h-0.3q-4.3,6.4-11.5,6.4a15,15,0,0,1-10.3-3.6,11.6,11.6,0,0,1-4.1-9.1,11.1,11.1,0,0,1,4.4-9.2q4.4-3.4,11.7-3.4a20.6,20.6,0,0,1,10.2,2.3v-1.6a7.9,7.9,0,0,0-2.9-6.2,9.9,9.9,0,0,0-6.8-2.5A10.7,10.7,0,0,0-193,467l-6.1-3.9Q-194.1,455.8-184.2,455.8Zm-9,27a5.6,5.6,0,0,0,2.3,4.6,8.5,8.5,0,0,0,5.4,1.8,11.1,11.1,0,0,0,7.9-3.3,10.2,10.2,0,0,0,3.5-7.7q-3.3-2.6-9.1-2.6a11.8,11.8,0,0,0-7.1,2A6.1,6.1,0,0,0-193.2,482.8Z" transform="translate(494.4 -415)" style="fill:#787879"/><path d="M-150.5,444.2a4.8,4.8,0,0,1-1.4,3.5,4.8,4.8,0,0,1-3.5,1.4,4.8,4.8,0,0,1-3.5-1.4,4.8,4.8,0,0,1-1.4-3.5,4.8,4.8,0,0,1,1.4-3.5,4.8,4.8,0,0,1,3.5-1.4,4.8,4.8,0,0,1,3.5,1.4A4.8,4.8,0,0,1-150.5,444.2Zm-1.4,12.8v37.2h-7V457h7Z" transform="translate(494.4 -415)" style="fill:#787879"/><path d="M-135.9,439.9v54.3h-7V439.9h7Z" transform="translate(494.4 -415)" style="fill:#787879"/></svg>