<svg xmlns="http://www.w3.org/2000/svg" viewBox="0 0 392.7 104"><title>outlook</title><rect width="392.7" height="104" rx="5" ry="5" style="fill:#fff"/><path d="M-294.4,660.2h-8.1l-15.8-17.2h-0.1v17.2h-5.7V607h5.7v33.7h0.1l15.1-16.4h7.5l-16.6,17.3Zm-55,.8q-8,0-12.7-5t-4.7-13.3q0-9,4.9-14.1t13.3-5.1q8,0,12.5,4.9t4.5,13.7q0,8.6-4.9,13.7t-13,5.2h0Zm0.4-32.7a10.9,10.9,0,0,0-8.8,3.8q-3.2,3.8-3.2,10.4t3.3,10.1a11.1,11.1,0,0,0,8.7,3.7q5.6,0,8.6-3.6t3-10.3q0-6.7-3-10.4T-349,628.3ZM-389.7,661q-8,0-12.7-5t-4.7-13.3q0-9,4.9-14.1t13.3-5.1q8,0,12.5,4.9t4.5,13.7q0,8.6-4.9,13.7t-13,5.2h0Zm0.4-32.7A10.9,10.9,0,0,0-398,632q-3.2,3.8-3.2,10.4t3.3,10.1a11.1,11.1,0,0,0,8.7,3.7q5.6,0,8.6-3.6t3-10.3q0-6.7-3-10.4T-389.2,628.3Zm-25.2,31.9h-5.7V607h5.7v53.1Zm-13.3-.4a11,11,0,0,1-5.4,1.1q-9.4,0-9.4-10.5V629.2h-6.2v-4.9h6.2v-8.8l5.7-1.9v10.6h9v4.9h-9v20.2q0,3.6,1.2,5.1a4.9,4.9,0,0,0,4.1,1.5,6,6,0,0,0,3.7-1.2v4.9h0Zm-26.4.4H-460v-5.7h-0.1a11.8,11.8,0,0,1-11.1,6.5q-12.8,0-12.8-15.3V624.3h5.7v20.5q0,11.4,8.7,11.4a8.8,8.8,0,0,0,6.9-3.1,11.9,11.9,0,0,0,2.7-8.1V624.3h5.7v35.9h0Zm-60.3.8q-10.7,0-17.1-7t-6.4-18.3q0-12.1,6.6-19.3t17.8-7.2q10.4,0,16.8,7t6.4,18.3q0,12.3-6.5,19.4t-17.4,7.1h0Zm0.4-46.6a16.2,16.2,0,0,0-12.9,5.7q-4.9,5.7-4.9,15t4.8,14.9a15.7,15.7,0,0,0,12.6,5.7q8.3,0,13-5.4t4.8-15.1q0-9.9-4.6-15.4T-514.1,614.4Zm-71.6,1v13.3l4.7,2.9h0.5l20.1-13.5a2.9,2.9,0,0,0-2.3-2.7h-22.9Zm0,19.6,4.3,2.9a1.3,1.3,0,0,0,1.3,0l19.7-13.1v24.5a3.4,3.4,0,0,1-3.6,3.8h-21.6V635h0Zm-42.2-26.4v52.2l39.7,8.3V600.9Zm26.6,34.9a7.9,7.9,0,0,1-6.6,3.3,7.8,7.8,0,0,1-6.4-3.2,13.3,13.3,0,0,1-2.5-8.4,14.3,14.3,0,0,1,2.5-8.8,8,8,0,0,1,6.7-3.4,7.6,7.6,0,0,1,6.4,3.2,13.7,13.7,0,0,1,2.4,8.5A14,14,0,0,1-601.4,643.5Zm-6.4-16a3.9,3.9,0,0,0-3.5,2,10.1,10.1,0,0,0-1.3,5.4,9.9,9.9,0,0,0,1.3,5.4,3.9,3.9,0,0,0,3.4,2,3.9,3.9,0,0,0,3.4-1.9,9.8,9.8,0,0,0,1.3-5.4,10.6,10.6,0,0,0-1.2-5.6,3.7,3.7,0,0,0-3.3-2h0Z" transform="translate(655.7 -584)" style="fill:#0072c6"/></svg>