<svg xmlns="http://www.w3.org/2000/svg" viewBox="0 0 392.7 104"><title>yahoo</title><rect width="392.7" height="104" rx="5" ry="5" style="fill:#fff"/><path d="M-111.4,505.2c-1.5.1-7.7,1.5-9.8,2s-22.7,16.4-24.1,20.3a27.6,27.6,0,0,0-.4,5.4l-0.2,3.1a62.1,62.1,0,0,0,.9,7.8c1.3,0.3,11.1,0,12.9.3l-0.2,4c-1.8-.1-14.1-0.1-21.2-0.1-3.6,0-15.1.4-18.7,0.3l0.7-3.8c1.9-.2,10,0.3,11.8-1.5s0.6-1.9.6-7.3v-2.5a40.2,40.2,0,0,0-.3-5.5c-0.7-2.2-18.8-24.8-23.4-28.4-1.3-.4-9.8-1.3-11.9-1.7v-3.4c1-.5,10.4.1,19.5-0.2,6-.2,19.6,0,21.3.2l-0.4,3c-1.8.4-10.4,0.6-12.7,1.2,5.8,8.7,15,19.8,18,24.2,1.6-2.4,16.1-12.3,16.5-15.8-2.2-.5-9.7-1.5-10.9-1.5l-0.7-3.9c2-.3,12.7,0,18.1,0s14.4,0,17.2.2l-2.5,3.7" transform="translate(238.3 -467.4)" style="fill:#7b0099"/><path d="M-105.2,516.5v-0.6c-1.7,4-4.6,10.2-5.1,11.7h9.3c-1.1-2.9-3.2-8.6-4-11.1m24.6,30h-22.1l0.4-3.5c1.9-.1,5.4-0.9,7-1-1-2.4-4.5-9.8-5.2-11.2a109.1,109.1,0,0,0-11.1.6c-0.4.7-3.1,3.3-3.5,6.9l5.4,1-0.6,3.6h-9.5c-1.4,0-8,0-9.2.2l1.2-3.8c1.5-.2,5-1.3,6.3-1.5,2-2.8,11.1-20.7,11.9-22.4-1.2-.3-3.3-1.3-4.6-1.5l-0.2-2.6,10.4,0.3,10.5-.2-0.6,2.5a43.1,43.1,0,0,0-5,1.1c0.7,2,3.3,8.4,5.3,13.1s4,10,6.4,13.9c1.6,0.3,5.3,1.4,7,1.5v0.9Z" transform="translate(238.3 -467.4)" style="fill:#7b0099"/><path d="M-25.3,536.8c-1.3-.1-7.6-0.1-10.7,0s-8.7-.2-11.6-0.1l-0.2-3.6,8.4-.7a38.5,38.5,0,0,0,.2-6.9l-0.2-4.2c-3.2,0-24.3,1.1-25.2,1.2l-1.5.2a43.3,43.3,0,0,0,.7,9.6c1.7,0.3,7.8.7,9.1,0.9v3.9c-1.5-.1-10.9,0-13.8,0h-14l0.3-4,8.9-.9c0.2-2.6.3-6.7,0.3-11V516c0-1.8-.1-7-0.2-8.8l-9.1-.7-0.3-3c1.2,0.1,9.5-.1,13.9-0.1h14.5l-0.3,3.2c-1.9.1-8.2,0.6-9.3,0.8a31.1,31.1,0,0,0-.6,7.6v2.5c1.8,0,24.1-.1,26.9-0.5v-3.4c0-4.4.7-9.2,0.2-10.5a89.1,89.1,0,0,0-9-1.2l0.3-3.2,11,0.2c4.4,0,10.8.2,12.1,0l-0.3,2.6c-1.3.1-7.1,1.6-7.1,1.6a34,34,0,0,0-.1,6.7c0.2,3.3.3,9.7,0.3,9.7,0.2,7.2.6,13,.2,13.3s4.6,0.7,6,.9l0.5,0.9v2.5" transform="translate(238.3 -467.4)" style="fill:#7b0099"/><path d="M18.2,520.9c0.4-10.1-7.5-12.8-17.5-12.1-5.2.4-15.9,3.1-15.9,12.1s8.2,13.7,19,12.7c8.4-.7,12.8-3.8,13.9-8.1l0.4-4.6m8-.8c0.5,12.2-10.7,18.3-25.2,18.3-6,0-13.4-1.1-19.6-4.9s-5.7-6.7-5.7-11.5c0-9.8,10.7-18,27.1-17.9,6.2,0,12.2,1,17.1,4.7s5.1,5.1,5.9,8.8Z" transform="translate(238.3 -467.4)" style="fill:#7b0099"/><path d="M94.8,540.7l-3.5-.3v-7.5l4.4,0.5,3.9,0.2L98.6,541l-3.7-.3m4.5-13.3-6.5-.6c0.7-3.3.1-28.4,0-31.1l-0.3-5.3c1.8,0.4,1.5.2,9.1,1,4.6,0.5,5.2.7,6.8,0.8l-2,6.3C104.7,503.4,99.8,525.7,99.3,527.4Z" transform="translate(238.3 -467.4)" style="fill:#7b0099"/><path d="M78.3,516.8c0.7-11-9.9-15-21.3-14.2-6,.4-17.1,3.9-17.1,14.2s9.3,15.2,21.8,14.2c9.6-.8,13.6-4.5,15.8-9.4a16,16,0,0,0,.8-4.8m8.6-1.6c0.9,11.4-12.3,20.9-28.9,20.9-6.9,0-12.7-.8-19.5-5.3s-8.2-6.9-8.9-13.2c-1.2-11.2,12.2-20.5,30.9-20.4,7.1,0,14,1.1,19.5,5.4s5.8,7.5,6.7,11.7Z" transform="translate(238.3 -467.4)" style="fill:#7b0099"/><path d="M106.5,537.1h0.7c0.6,0,1.1,0,1.1-.7s-0.5-.7-1-0.7h-0.9v1.4m-0.7-1.9h1.6c1,0,1.5.4,1.5,1.2a1.1,1.1,0,0,1-1.1,1.2l1.2,1.9h-0.7l-1.2-1.8h-0.7v1.8h-0.7v-4.3h0Zm1.4,5.3a3.1,3.1,0,1,0-3-3.1A3,3,0,0,0,107.3,540.5Zm0-6.8a3.7,3.7,0,1,1-3.7,3.7A3.6,3.6,0,0,1,107.3,533.7Z" transform="translate(238.3 -467.4)" style="fill:#7b0099"/></svg>